<?xml version="1.0" encoding="utf-8"?>
<!-- Generator: Adobe Illustrator 23.0.1, SVG Export Plug-In . SVG Version: 6.00 Build 0)  -->
<svg version="1.1" id="avatar-man" xmlns="http://www.w3.org/2000/svg" xmlns:xlink="http://www.w3.org/1999/xlink" x="0px" y="0px"
   viewBox="0 0 48 48" enable-background="new 0 0 48 48" xml:space="preserve">
<g>
  <path d="M33.4,22.4c-0.8,1.4-1.1,3.1-1.5,5c0.8-1,1.4-1.8,1.6-3.3C33.5,23.7,33.7,22.5,33.4,22.4z"/>
  <path d="M37.5,40.9c-0.9-0.5-1.7-1.2-2.5-1.7c-1.5-1-3.3-2.1-4-3.8c-0.3-0.7-0.1-1.4-0.3-2.3c0-0.2-0.1-1.3,0-1.8
    c0.2-0.9,0.1-1.9,0.3-2.8c0.2-0.9,0.2-1.9,0.4-2.8c0.2-0.6,0.5-1.3,0.6-1.9c-0.1,0.5-0.5,1.1-0.7,1.6c-0.4,1.3-0.9,2.6-1.3,3.8
    c-0.2,0.5-0.2,1.5-0.7,1.6c-0.3,0.3-1,0.1-1.5,0.2c-1.5,0.3-3.9,0.4-5.4,0.1c-0.6-0.1-1.4,0.1-1.7-0.3c-0.4-0.5-0.3-1.3-0.6-1.9
    c-0.6-1.5-1.4-4.3-2.7-5.1V24c0.4,0.5,0.8,2.1,1,2.9c0.6,1.8,1,3.7,1.5,5.6c0.2,0.7,0.3,2.6,0,3.1c-0.6,1.5-3.7,2.9-5.1,3.8
    c-1.6,1-3.6,1.8-5.4,2.5c-0.2,0.1-0.6,0.3-1,0.4C12.6,45.8,18,48,23.9,48c6.1,0,11.7-2.3,15.9-6c-0.2-0.1-0.4-0.1-0.6-0.2
    C38.8,41.5,38.1,41.2,37.5,40.9z"/>
  <path d="M16.3,23.2c-0.2,1.8,0.6,3.7,1.6,4.3v-0.2c-0.2-0.3-0.2-0.8-0.3-1.1c-0.2-0.7-0.6-1.4-0.9-2.1
    C16.6,23.8,16.6,23.3,16.3,23.2z"/>
  <path d="M24.1,0c-13.2,0-24,10.8-24,24c0,7,3,13.3,7.8,17.7c1.2-0.3,2.2-0.9,3.2-1.3c2.1-0.9,4.1-1.9,5.9-3.1
    c0.7-0.5,2.1-1.3,2.4-2.1v-0.7c0-1.1-0.1-2-0.3-2.8c-0.2-0.7-0.4-1.5-0.6-2.1c0-0.3-0.1-0.5-0.2-0.8c-0.2-0.3-0.7-0.4-0.9-0.7
    c-1.2-1.5-2.4-2.9-1.7-5.5c0.2-0.1,0.5-0.2,0.7-0.4c-0.5-0.6-0.5-2.2-0.7-3.2c-0.3-1.4,0-3.3,0.4-4.4c0.4-1,0.6-2,1.2-2.9
    c0.7-1.1,2-2,3.2-2.5c0.8-0.4,1.8-0.4,2.9-0.7c0.4-0.1,1.1,0.1,1.5-0.1c5.1,0,7.6,3.7,8.6,7.9c0.3,1.3-0.1,2.8-0.3,3.8v0.8
    c-0.1,0.4-0.2,0.7-0.3,1.1H33c0.2-0.2,0.4-0.3,0.7-0.3c0.2,0.2,0.4,0.4,0.6,0.6c0.1,2.1-0.3,3.8-1.2,5.1c-0.3,0.4-1.2,1.2-1.4,1.6
    c0,0.5-0.1,0.9-0.1,1.4c-0.3,1.2-0.4,3.9,0,4.9c0.1,0.4,0.5,0.7,0.7,1c0.8,1.2,2,1.7,3.1,2.6c0.7,0.5,1.4,1.1,2.2,1.6
    c0.6,0.4,1.4,0.7,2,1c0.2,0.1,0.5,0.1,0.7,0.3c4.6-4.4,7.5-10.6,7.5-17.4C48.1,10.8,37.3,0,24.1,0z"/>
</g>
</svg>
