<?xml version="1.0" encoding="utf-8"?>
<!-- Generator: Adobe Illustrator 23.0.1, SVG Export Plug-In . SVG Version: 6.00 Build 0)  -->
<svg version="1.1" id="avatar_man" xmlns="http://www.w3.org/2000/svg" xmlns:xlink="http://www.w3.org/1999/xlink" x="0px" y="0px"
   viewBox="0 0 48 48" enable-background="new 0 0 48 48" xml:space="preserve">
<path d="M24,0C10.8,0,0,10.8,0,24c0,13.2,10.7,24,24,24c13.2,0,24-10.7,24-24C48,10.8,37.2,0,24,0z M24,46.7c-5.6,0-10.7-2-14.6-5.4
  c0.4-0.1,0.8-0.3,0.9-0.3c1.7-0.7,3.6-1.5,5.1-2.4c1.3-0.8,4.2-2.2,4.8-3.6c0.2-0.6,0.2-2.3,0-3c-0.5-1.8-0.9-3.6-1.4-5.3
  c-0.2-0.8-0.5-2.2-1-2.7v-0.1c1.2,0.8,1.9,3.4,2.5,4.8c0.2,0.5,0.2,1.3,0.5,1.8c0.3,0.4,1,0.1,1.6,0.3c1.4,0.3,3.7,0.2,5.1-0.1
  c0.5-0.1,1.1,0,1.4-0.2c0.5-0.2,0.5-1,0.7-1.6c0.4-1.2,0.8-2.4,1.2-3.6c0.2-0.5,0.6-1,0.6-1.5h0c-0.1,0.6-0.4,1.2-0.5,1.8
  c-0.2,0.8-0.2,1.8-0.4,2.6c-0.2,0.9-0.1,1.8-0.3,2.7c-0.1,0.5,0,1.5,0,1.7c0.2,0.9,0,1.6,0.3,2.2c0.7,1.6,2.4,2.6,3.8,3.6
  c0.8,0.5,1.5,1.2,2.4,1.6c0.6,0.3,1.2,0.6,1.8,0.8c0.2,0.1,0.4,0.1,0.6,0.2C35,44.5,29.7,46.7,24,46.7z M18.2,27.2v0.2
  c-1-0.6-1.8-2.4-1.6-4.1c0.3,0.2,0.3,0.6,0.4,0.9c0.3,0.6,0.6,1.3,0.8,2C18,26.4,18,26.9,18.2,27.2z M32.8,22.5
  c0.3,0.1,0.2,1.2,0.1,1.6c-0.2,1.4-0.8,2.2-1.4,3.1h0C31.8,25.5,32.1,23.8,32.8,22.5z M39.6,40.5c-0.2-0.1-0.5-0.2-0.7-0.2
  c-0.6-0.3-1.3-0.6-1.9-0.9c-0.7-0.4-1.4-1-2.1-1.5c-1.1-0.8-2.2-1.4-3-2.4c-0.2-0.3-0.6-0.6-0.7-0.9c-0.4-1-0.3-3.5,0-4.6
  c0-0.4,0.1-0.8,0.1-1.3c0.1-0.3,1-1.1,1.3-1.5c0.8-1.2,1.2-2.8,1.1-4.8c-0.2-0.2-0.3-0.4-0.5-0.5c-0.3,0-0.5,0.1-0.7,0.3h-0.1
  c0.1-0.3,0.2-0.7,0.3-1v-0.8c0.2-1,0.6-2.4,0.3-3.6c-0.9-3.9-3.3-7.4-8.1-7.4c-0.3,0.2-1,0-1.4,0.1c-1,0.2-1.9,0.3-2.7,0.6
  c-1.1,0.5-2.4,1.4-3,2.4c-0.5,0.8-0.8,1.7-1.1,2.7c-0.4,1-0.7,2.8-0.4,4.1c0.2,0.9,0.2,2.4,0.6,3c-0.2,0.2-0.5,0.2-0.7,0.4
  c-0.6,2.5,0.5,3.8,1.6,5.2c0.2,0.3,0.7,0.4,0.8,0.7c0,0.2,0.1,0.5,0.2,0.8c0.2,0.6,0.3,1.3,0.5,2c0.2,0.8,0.3,1.6,0.3,2.6v0.6
  c-0.3,0.8-1.6,1.5-2.3,2c-1.7,1.1-3.6,2.1-5.5,2.9c-0.9,0.4-1.9,1-3,1.2C4.2,36.6,1.3,30.6,1.3,24C1.3,11.5,11.5,1.3,24,1.3
  c12.5,0,22.7,10.2,22.7,22.7C46.7,30.5,43.9,36.3,39.6,40.5z"/>
</svg>
